<svg xmlns="http://www.w3.org/2000/svg" xmlns:xlink="http://www.w3.org/1999/xlink" preserveAspectRatio="xMidYMid" width="754" height="744" viewBox="0 0 754 744">
  <defs>
    <style>

      .cls-2 {
        fill: #ffe400;
      }
    </style>
  </defs>
  <path d="M530.339,536.018 C489.147,580.991 438.510,603.470 378.444,603.470 C318.361,603.470 267.741,580.991 226.549,536.018 C185.357,491.062 164.761,436.482 164.761,372.280 C164.761,308.096 185.357,253.339 226.549,208.028 C267.741,162.717 318.361,140.062 378.444,140.062 C438.510,140.062 489.147,162.717 530.339,208.028 C571.530,253.339 592.126,308.096 592.126,372.280 C592.126,436.482 571.530,491.062 530.339,536.018 ZM755.864,371.766 C755.864,266.050 719.467,177.649 646.706,106.593 C573.928,35.537 484.336,0.009 377.929,0.009 C271.506,0.009 181.913,35.537 109.152,106.593 C36.374,177.649 -0.007,266.050 -0.007,371.766 C-0.007,477.497 36.374,565.882 109.152,636.938 C181.913,707.994 271.506,743.522 377.929,743.522 C484.336,743.522 573.928,707.994 646.706,636.938 C719.467,565.882 755.864,477.497 755.864,371.766 Z" id="path-1" class="cls-2" fill-rule="evenodd"/>
</svg>
